<mxfile host="65bd71144e">
    <diagram id="_0wab0v61emHtb4qyNVb" name="Page-1">
        <mxGraphModel dx="2190" dy="802" grid="1" gridSize="10" guides="1" tooltips="1" connect="1" arrows="1" fold="1" page="1" pageScale="1" pageWidth="850" pageHeight="1100" math="0" shadow="0">
            <root>
                <mxCell id="0"/>
                <mxCell id="1" parent="0"/>
                <mxCell id="16" value="SALESFORCE" style="rounded=0;whiteSpace=wrap;html=1;" parent="1" vertex="1">
                    <mxGeometry x="63" y="140" width="140" height="370" as="geometry"/>
                </mxCell>
                <mxCell id="2" value="Salesforce&lt;br&gt;&lt;b&gt;Apex&lt;/b&gt; Callout to AWS" style="whiteSpace=wrap;html=1;aspect=fixed;" parent="1" vertex="1">
                    <mxGeometry x="93" y="180" width="80" height="80" as="geometry"/>
                </mxCell>
                <mxCell id="3" value="" style="endArrow=classic;html=1;exitX=1;exitY=0.5;exitDx=0;exitDy=0;" parent="1" source="2" edge="1">
                    <mxGeometry width="50" height="50" relative="1" as="geometry">
                        <mxPoint x="483" y="420" as="sourcePoint"/>
                        <mxPoint x="253" y="280" as="targetPoint"/>
                    </mxGeometry>
                </mxCell>
                <mxCell id="6" value="" style="edgeStyle=none;html=1;" parent="1" source="4" target="5" edge="1">
                    <mxGeometry relative="1" as="geometry"/>
                </mxCell>
                <mxCell id="4" value="AWS S3 Inbound Bucket" style="shape=cylinder3;whiteSpace=wrap;html=1;boundedLbl=1;backgroundOutline=1;size=15;" parent="1" vertex="1">
                    <mxGeometry x="500" y="256" width="60" height="80" as="geometry"/>
                </mxCell>
                <mxCell id="8" value="" style="html=1;startArrow=block;startFill=1;" parent="1" source="5" target="7" edge="1">
                    <mxGeometry relative="1" as="geometry"/>
                </mxCell>
                <mxCell id="5" value="Processing Lambda" style="rhombus;whiteSpace=wrap;html=1;" parent="1" vertex="1">
                    <mxGeometry x="630" y="256" width="80" height="80" as="geometry"/>
                </mxCell>
                <mxCell id="7" value="AWS Textract" style="whiteSpace=wrap;html=1;" parent="1" vertex="1">
                    <mxGeometry x="770" y="266" width="120" height="60" as="geometry"/>
                </mxCell>
                <mxCell id="34" style="edgeStyle=none;html=1;exitX=0.5;exitY=0;exitDx=0;exitDy=0;" parent="1" source="13" edge="1">
                    <mxGeometry relative="1" as="geometry">
                        <mxPoint x="133" y="260" as="targetPoint"/>
                    </mxGeometry>
                </mxCell>
                <mxCell id="13" value="LWC Input form" style="whiteSpace=wrap;html=1;aspect=fixed;" parent="1" vertex="1">
                    <mxGeometry x="93" y="310" width="80" height="80" as="geometry"/>
                </mxCell>
                <mxCell id="17" value="CHAT GPT" style="ellipse;whiteSpace=wrap;html=1;" parent="1" vertex="1">
                    <mxGeometry x="800" y="430" width="80" height="80" as="geometry"/>
                </mxCell>
                <mxCell id="24" value="Resume Object" style="shape=cylinder3;whiteSpace=wrap;html=1;boundedLbl=1;backgroundOutline=1;size=15;" parent="1" vertex="1">
                    <mxGeometry x="103" y="410" width="60" height="80" as="geometry"/>
                </mxCell>
                <mxCell id="25" value="Salesforce" style="text;html=1;align=center;verticalAlign=middle;resizable=0;points=[];autosize=1;strokeColor=none;fillColor=none;" parent="1" vertex="1">
                    <mxGeometry x="93" y="520" width="80" height="30" as="geometry"/>
                </mxCell>
                <mxCell id="27" value="Document upload &lt;br&gt;triggers lambda" style="text;html=1;align=center;verticalAlign=middle;resizable=0;points=[];autosize=1;strokeColor=none;fillColor=none;" parent="1" vertex="1">
                    <mxGeometry x="547" y="220" width="120" height="40" as="geometry"/>
                </mxCell>
                <mxCell id="28" value="Grabs doc and &lt;br&gt;sends to Textract" style="text;html=1;align=center;verticalAlign=middle;resizable=0;points=[];autosize=1;strokeColor=none;fillColor=none;" parent="1" vertex="1">
                    <mxGeometry x="680" y="226" width="110" height="40" as="geometry"/>
                </mxCell>
                <mxCell id="35" value="RESUME ANALYSIS FEATURE - SALESFORCE" style="text;html=1;align=center;verticalAlign=middle;resizable=0;points=[];autosize=1;strokeColor=none;fillColor=none;" parent="1" vertex="1">
                    <mxGeometry x="-15" y="95" width="290" height="30" as="geometry"/>
                </mxCell>
                <mxCell id="37" value="Inbound Lambda" style="rhombus;whiteSpace=wrap;html=1;" parent="1" vertex="1">
                    <mxGeometry x="370" y="260" width="80" height="80" as="geometry"/>
                </mxCell>
                <mxCell id="44" value="" style="edgeStyle=none;html=1;" parent="1" edge="1">
                    <mxGeometry relative="1" as="geometry">
                        <mxPoint x="450" y="300" as="sourcePoint"/>
                        <mxPoint x="500" y="299.5" as="targetPoint"/>
                    </mxGeometry>
                </mxCell>
                <mxCell id="47" value="AWS API Gateway" style="whiteSpace=wrap;html=1;" parent="1" vertex="1">
                    <mxGeometry x="250" y="251" width="80" height="110" as="geometry"/>
                </mxCell>
                <mxCell id="48" value="" style="edgeStyle=none;html=1;" parent="1" edge="1">
                    <mxGeometry relative="1" as="geometry">
                        <mxPoint x="330" y="300" as="sourcePoint"/>
                        <mxPoint x="370" y="299.5" as="targetPoint"/>
                    </mxGeometry>
                </mxCell>
                <mxCell id="49" value="" style="endArrow=classic;startArrow=classic;html=1;exitX=0;exitY=0.5;exitDx=0;exitDy=0;entryX=1;entryY=1;entryDx=0;entryDy=0;" parent="1" source="17" target="5" edge="1">
                    <mxGeometry width="50" height="50" relative="1" as="geometry">
                        <mxPoint x="680" y="510" as="sourcePoint"/>
                        <mxPoint x="680" y="330" as="targetPoint"/>
                        <Array as="points">
                            <mxPoint x="690" y="470"/>
                        </Array>
                    </mxGeometry>
                </mxCell>
                <mxCell id="50" value="1" style="text;html=1;align=center;verticalAlign=middle;resizable=0;points=[];autosize=1;strokeColor=none;fillColor=none;" parent="1" vertex="1">
                    <mxGeometry x="724" y="272" width="30" height="30" as="geometry"/>
                </mxCell>
                <mxCell id="51" value="2" style="text;html=1;align=center;verticalAlign=middle;resizable=0;points=[];autosize=1;strokeColor=none;fillColor=none;" parent="1" vertex="1">
                    <mxGeometry x="685" y="375" width="30" height="30" as="geometry"/>
                </mxCell>
                <mxCell id="52" value="" style="endArrow=classic;startArrow=classic;html=1;exitX=1;exitY=0.5;exitDx=0;exitDy=0;exitPerimeter=0;" parent="1" source="24" edge="1">
                    <mxGeometry width="50" height="50" relative="1" as="geometry">
                        <mxPoint x="617" y="440" as="sourcePoint"/>
                        <mxPoint x="670" y="340" as="targetPoint"/>
                        <Array as="points">
                            <mxPoint x="670" y="450"/>
                        </Array>
                    </mxGeometry>
                </mxCell>
                <mxCell id="53" value="3" style="text;html=1;align=center;verticalAlign=middle;resizable=0;points=[];autosize=1;strokeColor=none;fillColor=none;" parent="1" vertex="1">
                    <mxGeometry x="640" y="375" width="30" height="30" as="geometry"/>
                </mxCell>
                <mxCell id="54" value="Return ChatGPT response to Salesforce" style="text;html=1;align=center;verticalAlign=middle;resizable=0;points=[];autosize=1;strokeColor=none;fillColor=none;" parent="1" vertex="1">
                    <mxGeometry x="270" y="425" width="240" height="30" as="geometry"/>
                </mxCell>
                <mxCell id="61" value="SALESFORCE" style="rounded=0;whiteSpace=wrap;html=1;" vertex="1" parent="1">
                    <mxGeometry x="40" y="670" width="140" height="370" as="geometry"/>
                </mxCell>
                <mxCell id="62" value="ServiceNow&lt;br&gt;&lt;b&gt;UI_Action&lt;/b&gt;&amp;nbsp;&lt;br&gt;Callout to AWS" style="whiteSpace=wrap;html=1;aspect=fixed;" vertex="1" parent="1">
                    <mxGeometry x="70" y="710" width="80" height="80" as="geometry"/>
                </mxCell>
                <mxCell id="63" value="" style="endArrow=classic;html=1;exitX=1;exitY=0.5;exitDx=0;exitDy=0;" edge="1" parent="1" source="62">
                    <mxGeometry width="50" height="50" relative="1" as="geometry">
                        <mxPoint x="460" y="950" as="sourcePoint"/>
                        <mxPoint x="230" y="810" as="targetPoint"/>
                    </mxGeometry>
                </mxCell>
                <mxCell id="64" value="" style="edgeStyle=none;html=1;" edge="1" parent="1" source="65" target="67">
                    <mxGeometry relative="1" as="geometry"/>
                </mxCell>
                <mxCell id="65" value="AWS S3 Inbound Bucket" style="shape=cylinder3;whiteSpace=wrap;html=1;boundedLbl=1;backgroundOutline=1;size=15;" vertex="1" parent="1">
                    <mxGeometry x="477" y="786" width="60" height="80" as="geometry"/>
                </mxCell>
                <mxCell id="66" value="" style="html=1;startArrow=block;startFill=1;" edge="1" parent="1" source="67" target="68">
                    <mxGeometry relative="1" as="geometry"/>
                </mxCell>
                <mxCell id="67" value="Processing Lambda" style="rhombus;whiteSpace=wrap;html=1;" vertex="1" parent="1">
                    <mxGeometry x="607" y="786" width="80" height="80" as="geometry"/>
                </mxCell>
                <mxCell id="68" value="AWS Textract" style="whiteSpace=wrap;html=1;" vertex="1" parent="1">
                    <mxGeometry x="747" y="796" width="120" height="60" as="geometry"/>
                </mxCell>
                <mxCell id="69" style="edgeStyle=none;html=1;exitX=0.5;exitY=0;exitDx=0;exitDy=0;" edge="1" parent="1" source="70">
                    <mxGeometry relative="1" as="geometry">
                        <mxPoint x="110" y="790" as="targetPoint"/>
                    </mxGeometry>
                </mxCell>
                <mxCell id="70" value="LWC Input form" style="whiteSpace=wrap;html=1;aspect=fixed;" vertex="1" parent="1">
                    <mxGeometry x="70" y="840" width="80" height="80" as="geometry"/>
                </mxCell>
                <mxCell id="71" value="CHAT GPT" style="ellipse;whiteSpace=wrap;html=1;" vertex="1" parent="1">
                    <mxGeometry x="777" y="960" width="80" height="80" as="geometry"/>
                </mxCell>
                <mxCell id="72" value="Resume Table" style="shape=cylinder3;whiteSpace=wrap;html=1;boundedLbl=1;backgroundOutline=1;size=15;" vertex="1" parent="1">
                    <mxGeometry x="80" y="940" width="60" height="80" as="geometry"/>
                </mxCell>
                <mxCell id="73" value="ServiceNow" style="text;html=1;align=center;verticalAlign=middle;resizable=0;points=[];autosize=1;strokeColor=none;fillColor=none;" vertex="1" parent="1">
                    <mxGeometry x="65" y="1050" width="90" height="30" as="geometry"/>
                </mxCell>
                <mxCell id="74" value="Document upload &lt;br&gt;triggers lambda" style="text;html=1;align=center;verticalAlign=middle;resizable=0;points=[];autosize=1;strokeColor=none;fillColor=none;" vertex="1" parent="1">
                    <mxGeometry x="524" y="750" width="120" height="40" as="geometry"/>
                </mxCell>
                <mxCell id="75" value="Grabs doc and &lt;br&gt;sends to Textract" style="text;html=1;align=center;verticalAlign=middle;resizable=0;points=[];autosize=1;strokeColor=none;fillColor=none;" vertex="1" parent="1">
                    <mxGeometry x="657" y="756" width="110" height="40" as="geometry"/>
                </mxCell>
                <mxCell id="76" value="Inbound Lambda" style="rhombus;whiteSpace=wrap;html=1;" vertex="1" parent="1">
                    <mxGeometry x="347" y="790" width="80" height="80" as="geometry"/>
                </mxCell>
                <mxCell id="77" value="" style="edgeStyle=none;html=1;" edge="1" parent="1">
                    <mxGeometry relative="1" as="geometry">
                        <mxPoint x="427" y="830" as="sourcePoint"/>
                        <mxPoint x="477" y="829.5" as="targetPoint"/>
                    </mxGeometry>
                </mxCell>
                <mxCell id="78" value="AWS API Gateway" style="whiteSpace=wrap;html=1;" vertex="1" parent="1">
                    <mxGeometry x="227" y="781" width="80" height="110" as="geometry"/>
                </mxCell>
                <mxCell id="79" value="" style="edgeStyle=none;html=1;" edge="1" parent="1">
                    <mxGeometry relative="1" as="geometry">
                        <mxPoint x="307" y="830" as="sourcePoint"/>
                        <mxPoint x="347" y="829.5" as="targetPoint"/>
                    </mxGeometry>
                </mxCell>
                <mxCell id="80" value="" style="endArrow=classic;startArrow=classic;html=1;exitX=0;exitY=0.5;exitDx=0;exitDy=0;entryX=1;entryY=1;entryDx=0;entryDy=0;" edge="1" parent="1" source="71" target="67">
                    <mxGeometry width="50" height="50" relative="1" as="geometry">
                        <mxPoint x="657" y="1040" as="sourcePoint"/>
                        <mxPoint x="657" y="860" as="targetPoint"/>
                        <Array as="points">
                            <mxPoint x="667" y="1000"/>
                        </Array>
                    </mxGeometry>
                </mxCell>
                <mxCell id="81" value="1" style="text;html=1;align=center;verticalAlign=middle;resizable=0;points=[];autosize=1;strokeColor=none;fillColor=none;" vertex="1" parent="1">
                    <mxGeometry x="701" y="802" width="30" height="30" as="geometry"/>
                </mxCell>
                <mxCell id="82" value="2" style="text;html=1;align=center;verticalAlign=middle;resizable=0;points=[];autosize=1;strokeColor=none;fillColor=none;" vertex="1" parent="1">
                    <mxGeometry x="662" y="905" width="30" height="30" as="geometry"/>
                </mxCell>
                <mxCell id="83" value="" style="endArrow=classic;startArrow=classic;html=1;exitX=1;exitY=0.5;exitDx=0;exitDy=0;exitPerimeter=0;" edge="1" parent="1" source="72">
                    <mxGeometry width="50" height="50" relative="1" as="geometry">
                        <mxPoint x="594" y="970" as="sourcePoint"/>
                        <mxPoint x="647" y="870" as="targetPoint"/>
                        <Array as="points">
                            <mxPoint x="647" y="980"/>
                        </Array>
                    </mxGeometry>
                </mxCell>
                <mxCell id="84" value="3" style="text;html=1;align=center;verticalAlign=middle;resizable=0;points=[];autosize=1;strokeColor=none;fillColor=none;" vertex="1" parent="1">
                    <mxGeometry x="617" y="905" width="30" height="30" as="geometry"/>
                </mxCell>
                <mxCell id="85" value="Return ChatGPT response to ServiceNow" style="text;html=1;align=center;verticalAlign=middle;resizable=0;points=[];autosize=1;strokeColor=none;fillColor=none;" vertex="1" parent="1">
                    <mxGeometry x="242" y="955" width="250" height="30" as="geometry"/>
                </mxCell>
                <mxCell id="86" value="" style="rounded=0;whiteSpace=wrap;html=1;" vertex="1" parent="1">
                    <mxGeometry x="1046" y="123" width="120" height="250" as="geometry"/>
                </mxCell>
                <mxCell id="87" value="" style="edgeStyle=none;html=1;" edge="1" parent="1" source="88" target="90">
                    <mxGeometry relative="1" as="geometry"/>
                </mxCell>
                <mxCell id="88" value="Salesforce&lt;br&gt;&lt;b&gt;APEX&lt;/b&gt; Callout to ChatGPT" style="whiteSpace=wrap;html=1;aspect=fixed;" vertex="1" parent="1">
                    <mxGeometry x="1066" y="143" width="80" height="80" as="geometry"/>
                </mxCell>
                <mxCell id="89" style="edgeStyle=none;html=1;exitX=0.5;exitY=1;exitDx=0;exitDy=0;entryX=1;entryY=0.5;entryDx=0;entryDy=0;entryPerimeter=0;startArrow=block;startFill=1;" edge="1" parent="1" source="90" target="93">
                    <mxGeometry relative="1" as="geometry">
                        <Array as="points">
                            <mxPoint x="1353" y="313"/>
                        </Array>
                    </mxGeometry>
                </mxCell>
                <mxCell id="90" value="Chat GPT" style="ellipse;whiteSpace=wrap;html=1;" vertex="1" parent="1">
                    <mxGeometry x="1313" y="143" width="80" height="80" as="geometry"/>
                </mxCell>
                <mxCell id="91" value="Send job &lt;br&gt;description prompt" style="text;html=1;align=center;verticalAlign=middle;resizable=0;points=[];autosize=1;strokeColor=none;fillColor=none;" vertex="1" parent="1">
                    <mxGeometry x="1171" y="143" width="120" height="40" as="geometry"/>
                </mxCell>
                <mxCell id="92" value="JOB DESCRIPTION GENERATOR FEATURE - SALESFORCE" style="text;html=1;align=center;verticalAlign=middle;resizable=0;points=[];autosize=1;strokeColor=none;fillColor=none;" vertex="1" parent="1">
                    <mxGeometry x="950" y="95" width="360" height="30" as="geometry"/>
                </mxCell>
                <mxCell id="93" value="Job Description Object" style="shape=cylinder3;whiteSpace=wrap;html=1;boundedLbl=1;backgroundOutline=1;size=15;" vertex="1" parent="1">
                    <mxGeometry x="1076" y="273" width="60" height="80" as="geometry"/>
                </mxCell>
                <mxCell id="94" value="Salesforce" style="text;html=1;align=center;verticalAlign=middle;resizable=0;points=[];autosize=1;strokeColor=none;fillColor=none;" vertex="1" parent="1">
                    <mxGeometry x="1066" y="368" width="80" height="30" as="geometry"/>
                </mxCell>
                <mxCell id="95" value="Send ChatGPT response to object" style="text;html=1;align=center;verticalAlign=middle;resizable=0;points=[];autosize=1;strokeColor=none;fillColor=none;" vertex="1" parent="1">
                    <mxGeometry x="1158" y="313" width="210" height="30" as="geometry"/>
                </mxCell>
                <mxCell id="96" value="RESUME ANALYSIS FEATURE - SERVICENOW" style="text;html=1;align=center;verticalAlign=middle;resizable=0;points=[];autosize=1;strokeColor=none;fillColor=none;" vertex="1" parent="1">
                    <mxGeometry x="-15" y="640" width="290" height="30" as="geometry"/>
                </mxCell>
                <mxCell id="97" value="" style="rounded=0;whiteSpace=wrap;html=1;" vertex="1" parent="1">
                    <mxGeometry x="1052" y="668" width="120" height="250" as="geometry"/>
                </mxCell>
                <mxCell id="98" value="" style="edgeStyle=none;html=1;" edge="1" parent="1" source="99" target="101">
                    <mxGeometry relative="1" as="geometry"/>
                </mxCell>
                <mxCell id="99" value="ServiceNow&lt;br&gt;&lt;b&gt;UI_Action&lt;/b&gt; Callout to ChatGPT" style="whiteSpace=wrap;html=1;aspect=fixed;" vertex="1" parent="1">
                    <mxGeometry x="1072" y="688" width="80" height="80" as="geometry"/>
                </mxCell>
                <mxCell id="100" style="edgeStyle=none;html=1;exitX=0.5;exitY=1;exitDx=0;exitDy=0;entryX=1;entryY=0.5;entryDx=0;entryDy=0;entryPerimeter=0;startArrow=block;startFill=1;" edge="1" parent="1" source="101" target="104">
                    <mxGeometry relative="1" as="geometry">
                        <Array as="points">
                            <mxPoint x="1359" y="858"/>
                        </Array>
                    </mxGeometry>
                </mxCell>
                <mxCell id="101" value="Chat GPT" style="ellipse;whiteSpace=wrap;html=1;" vertex="1" parent="1">
                    <mxGeometry x="1319" y="688" width="80" height="80" as="geometry"/>
                </mxCell>
                <mxCell id="102" value="Send job &lt;br&gt;description prompt" style="text;html=1;align=center;verticalAlign=middle;resizable=0;points=[];autosize=1;strokeColor=none;fillColor=none;" vertex="1" parent="1">
                    <mxGeometry x="1177" y="688" width="120" height="40" as="geometry"/>
                </mxCell>
                <mxCell id="103" value="JOB DESCRIPTION GENERATOR FEATURE - SERVICENOW" style="text;html=1;align=center;verticalAlign=middle;resizable=0;points=[];autosize=1;strokeColor=none;fillColor=none;" vertex="1" parent="1">
                    <mxGeometry x="956" y="640" width="360" height="30" as="geometry"/>
                </mxCell>
                <mxCell id="104" value="Job Description Table" style="shape=cylinder3;whiteSpace=wrap;html=1;boundedLbl=1;backgroundOutline=1;size=15;" vertex="1" parent="1">
                    <mxGeometry x="1082" y="818" width="60" height="80" as="geometry"/>
                </mxCell>
                <mxCell id="105" value="ServiceNow" style="text;html=1;align=center;verticalAlign=middle;resizable=0;points=[];autosize=1;strokeColor=none;fillColor=none;" vertex="1" parent="1">
                    <mxGeometry x="1067" y="913" width="90" height="30" as="geometry"/>
                </mxCell>
                <mxCell id="106" value="Send ChatGPT response to object" style="text;html=1;align=center;verticalAlign=middle;resizable=0;points=[];autosize=1;strokeColor=none;fillColor=none;" vertex="1" parent="1">
                    <mxGeometry x="1164" y="858" width="210" height="30" as="geometry"/>
                </mxCell>
            </root>
        </mxGraphModel>
    </diagram>
</mxfile>